<?xml version="1.0" encoding="utf-8"?>
<!-- Generator: Adobe Illustrator 27.5.0, SVG Export Plug-In . SVG Version: 6.00 Build 0)  -->
<svg version="1.1" id="Layer_1" xmlns="http://www.w3.org/2000/svg" xmlns:xlink="http://www.w3.org/1999/xlink" x="0px" y="0px"
	 viewBox="0 0 25.6 24" style="enable-background:new 0 0 25.6 24;" xml:space="preserve">
<style type="text/css">
	.st0{clip-path:url(#SVGID_00000154401710646529444940000014831739763481553555_);}
	.st1{display:none;fill:none;}
	.st2{fill:#EFEFEF;}
	.st3{fill:none;}
	.st4{fill:#292929;}
	.st5{clip-path:url(#SVGID_00000146469076431860530120000010713182948015863197_);}
	.st6{fill-rule:evenodd;clip-rule:evenodd;fill:#EFEFEF;}
	.st7{clip-path:url(#SVGID_00000173882928884832727940000001801209883532041628_);}
</style>
<g>
	<defs>
		<rect id="SVGID_1_" x="-51.2" y="-4.4" width="28" height="28"/>
	</defs>
	<clipPath id="SVGID_00000153688784831731790070000007810217118609450639_">
		<use xlink:href="#SVGID_1_"  style="overflow:visible;"/>
	</clipPath>
	<g style="clip-path:url(#SVGID_00000153688784831731790070000007810217118609450639_);">
		<path class="st1" d="M-44.3,13l0.1,0.2C-44.3,13.1-44.3,13.1-44.3,13z M-42.1,9.3C-42,8.4-41.6,8-41,7.5c0.9-0.7,2.1-0.3,2.1-0.3
			V4.9c0.3,0,0.6,0,0.8,0.1v2.9c0,0-1.2-0.4-2.1,0.3c-0.6,0.5-1,1-1.1,1.9c0,0.5,0.1,1.1,0.5,1.6c-0.1-0.1-0.2-0.1-0.3-0.2
			C-41.9,10.9-42.1,10-42.1,9.3z M-33.3,0.7c-0.6-0.7-0.9-1.5-1-2h0.8c0,0-0.2,1.4,1,2.7l0,0C-32.8,1.2-33,1-33.3,0.7z M-29.5,2.8
			v2.9c0,0-1,0-1.8-0.2C-32.3,5.1-33,4.7-33,4.7s-0.5-0.3-0.5-0.3v5.9c0,0.3-0.1,1.2-0.3,1.8c-0.3,0.9-0.9,1.5-1,1.6
			c0,0-0.6,0.8-1.8,1.3c-1,0.5-1.9,0.5-2.2,0.5c0,0-1.6,0.1-3-0.9c-0.3-0.2-0.6-0.4-0.8-0.7l0,0c1.4,1,3,0.9,3,0.9
			c0.3,0,1.2,0,2.2-0.5c1.1-0.5,1.8-1.3,1.8-1.3c0.1-0.1,0.6-0.7,1-1.6c0.3-0.7,0.3-1.5,0.3-1.8V3.6c0,0,0.5,0.3,0.5,0.3
			s0.7,0.4,1.7,0.7c0.8,0.2,1.8,0.2,1.8,0.2V2.7C-29.9,2.8-29.6,2.8-29.5,2.8z"/>
		<path class="st2" d="M-30.3,2.7v2.2c0,0-1,0-1.8-0.2C-33.1,4.4-33.8,4-33.8,4s-0.5-0.3-0.5-0.3v5.9c0,0.3-0.1,1.2-0.3,1.8
			c-0.3,0.9-0.9,1.5-1,1.6c0,0-0.6,0.8-1.8,1.3c-1,0.5-1.9,0.5-2.2,0.5c0,0-1.6,0.1-3-0.9l0,0c-0.1-0.2-0.3-0.3-0.4-0.5
			c-0.4-0.6-0.7-1.2-0.8-1.4v0c-0.1-0.3-0.3-1.1-0.3-1.9c0.1-1.4,0.5-2.2,0.6-2.4c0.3-0.6,0.7-1.1,1.2-1.5c0.4-0.4,0.9-0.7,1.5-0.9
			c0.6-0.2,1.2-0.4,1.8-0.4v2.3c0,0-1.2-0.4-2.1,0.3c-0.6,0.5-1,1-1.1,1.9c0,0.6,0.2,1.5,1,2.2c0.1,0.1,0.2,0.1,0.3,0.2
			c0.2,0.2,0.3,0.4,0.5,0.5c0.8,0.6,1.5,0.6,2.5,0.2c0.6-0.2,1.1-0.8,1.3-1.4c0.1-0.4,0.1-0.8,0.1-1.1V-1.3h2.1c0.1,0.5,0.3,1.2,1,2
			c0.3,0.3,0.5,0.5,0.9,0.7c0.1,0.1,0.6,0.6,1.2,0.9C-31,2.5-30.6,2.6-30.3,2.7z"/>
		<path class="st3" d="M-44.6,11.3l0.1,0.2C-44.6,11.4-44.6,11.4-44.6,11.3z"/>
		<path class="st4" d="M-40.7,5.3c-0.5,0.2-1,0.5-1.5,0.9c-0.5,0.4-0.9,0.9-1.2,1.5c-0.1,0.2-0.6,1.1-0.6,2.4c0,0.8,0.2,1.6,0.3,1.9
			v0c0.1,0.2,0.3,0.9,0.8,1.4c0.1,0.2,0.3,0.3,0.4,0.5c-0.5-0.3-0.9-0.7-1.3-1.2c-0.4-0.6-0.7-1.2-0.8-1.4v0
			c-0.1-0.3-0.3-1.1-0.3-1.9c0.1-1.4,0.5-2.2,0.6-2.4c0.3-0.6,0.7-1.1,1.2-1.5c0.4-0.4,0.9-0.7,1.5-0.9c0.3-0.1,0.7-0.2,1-0.3
			c0.5-0.1,1.1-0.1,1.6,0v0.7C-39.5,4.9-40.2,5-40.7,5.3z"/>
		<path class="st4" d="M-34.3-1.3h-2.1V9.9c0,0.4,0,0.8-0.1,1.1c-0.2,0.6-0.7,1.1-1.3,1.4c-0.9,0.4-1.6,0.3-2.4-0.2
			c-0.2-0.1-0.4-0.3-0.5-0.5c0.7,0.4,1.4,0.4,2.2,0.1c0.6-0.2,1.1-0.8,1.3-1.4c0.1-0.4,0.1-0.8,0.1-1.1V-2h2.9
			C-34.3-2-34.3-1.7-34.3-1.3z M-30.3,2.1v0.6c-0.3-0.1-0.7-0.2-1-0.4c-0.6-0.3-1.1-0.8-1.2-0.9c0.1,0.1,0.2,0.1,0.3,0.2
			C-31.4,2-30.6,2.1-30.3,2.1z"/>
		<path class="st2" d="M-34.2,19.9c0,0.1,0,0.2,0,0.2c0,0,0,0,0,0c0.1,0.4,0.5,0.6,0.8,0.6v0.9c-0.4,0-0.7,0-1.2-0.3
			c-0.5-0.3-0.8-0.9-0.8-1.5c0-0.6,0.3-1.3,0.9-1.6c0.4-0.2,0.7-0.2,1.2-0.2V19C-33.8,19-34.2,19.4-34.2,19.9L-34.2,19.9z"/>
		<path class="st2" d="M-32.4,19.9c0,0.1,0,0.2,0,0.2c0,0,0,0,0,0c-0.1,0.4-0.5,0.6-0.8,0.6v0.9c0.4,0,0.7,0,1.2-0.3
			c0.5-0.3,0.8-0.9,0.8-1.5c0-0.6-0.3-1.3-0.9-1.6c-0.4-0.2-0.7-0.2-1.2-0.2V19C-32.8,19-32.4,19.4-32.4,19.9L-32.4,19.9L-32.4,19.9
			z"/>
		<path class="st2" d="M-47,17.3h3.3l-0.3,0.9h-0.9v3.5h-1.1v-3.5H-47V17.3z M-38.3,17.3v0.9h1.1v3.5h1.1v-3.5h0.9l0.3-0.9H-38.3z
			 M-43,18.3c0.3,0,0.5-0.2,0.5-0.5c0-0.3-0.2-0.5-0.5-0.5s-0.5,0.2-0.5,0.5C-43.5,18.1-43.3,18.3-43,18.3z M-43.5,21.6h1v-3h-1
			V21.6z M-38.8,18.3H-40l-1,1v-2h-1l0,4.4h1v-1.1l0.3-0.3l1,1.4h1.1l-1.5-2.1L-38.8,18.3z M-28.8,19.5l1.3-1.3h-1.2l-1,1v-2h-1
			l0,4.4h1v-1.1l0.3-0.3l1,1.4h1.1L-28.8,19.5z M-31.5,19.9c0,1-0.8,1.8-1.8,1.8c-1,0-1.8-0.8-1.8-1.8s0.8-1.8,1.8-1.8
			C-32.3,18.1-31.5,18.9-31.5,19.9z M-32.4,19.9c0-0.5-0.4-0.9-0.9-0.9c-0.5,0-0.9,0.4-0.9,0.9s0.4,0.9,0.9,0.9
			C-32.8,20.7-32.4,20.3-32.4,19.9z"/>
	</g>
</g>
<g>
	<defs>
		<rect id="SVGID_00000078744596276566080670000002453889520291656362_" x="-26.9" y="-1.8" width="25.1" height="23.5"/>
	</defs>
	<clipPath id="SVGID_00000054233823624592763540000016275196254675765163_">
		<use xlink:href="#SVGID_00000078744596276566080670000002453889520291656362_"  style="overflow:visible;"/>
	</clipPath>
	<g style="clip-path:url(#SVGID_00000054233823624592763540000016275196254675765163_);">
		<path class="st6" d="M-6.9,8.7c-4.1-2.3-10.7-2.5-14.6-1.4c-0.6,0.2-1.3-0.2-1.5-0.7c-0.2-0.6,0.2-1.2,0.8-1.4
			c4.4-1.3,11.8-1,16.5,1.6c0.6,0.3,0.7,1,0.4,1.5C-5.6,8.8-6.3,9-6.9,8.7z M-7,12c-0.3,0.4-0.9,0.6-1.3,0.3
			c-3.4-1.9-8.5-2.5-12.5-1.4c-0.5,0.1-1.1-0.1-1.2-0.6c-0.2-0.5,0.1-1,0.7-1.1c4.6-1.3,10.2-0.7,14.1,1.6C-6.9,11-6.7,11.6-7,12z
			 M-8.5,15.2c-0.2,0.3-0.7,0.5-1.1,0.2c-3-1.7-6.7-2.1-11-1.1c-0.4,0.1-0.8-0.2-0.9-0.6c-0.1-0.4,0.2-0.8,0.6-0.9
			c4.8-1,8.9-0.6,12.2,1.3C-8.4,14.4-8.3,14.9-8.5,15.2z M-14.3-1.8c-6.9,0-12.6,5.3-12.6,11.8c0,6.5,5.6,11.8,12.6,11.8
			c6.9,0,12.6-5.3,12.6-11.8C-1.7,3.5-7.4-1.8-14.3-1.8z"/>
	</g>
</g>
<g>
	<defs>
		<rect id="SVGID_00000153666967443994782750000012407219786320717966_" width="25.6" height="24"/>
	</defs>
	<clipPath id="SVGID_00000140696797452605190980000003249064906723236785_">
		<use xlink:href="#SVGID_00000153666967443994782750000012407219786320717966_"  style="overflow:visible;"/>
	</clipPath>
	<g style="clip-path:url(#SVGID_00000140696797452605190980000003249064906723236785_);">
		<path class="st2" d="M12.8,2.2c3.4,0,3.8,0,5.2,0.1c1.2,0.1,1.9,0.2,2.4,0.4c0.6,0.2,1,0.5,1.5,0.9c0.4,0.4,0.7,0.8,1,1.4
			C23,5.3,23.2,6,23.3,7.2c0.1,1.3,0.1,1.6,0.1,4.8c0,3.2,0,3.6-0.1,4.8c-0.1,1.2-0.3,1.8-0.4,2.2c-0.2,0.6-0.5,1-1,1.4
			c-0.4,0.4-0.9,0.7-1.5,0.9c-0.5,0.2-1.1,0.4-2.4,0.4c-1.4,0.1-1.8,0.1-5.2,0.1c-3.4,0-3.8,0-5.2-0.1c-1.2-0.1-1.9-0.2-2.4-0.4
			c-0.6-0.2-1-0.5-1.5-0.9c-0.4-0.4-0.7-0.8-1-1.4c-0.2-0.4-0.4-1.1-0.4-2.2c-0.1-1.3-0.1-1.6-0.1-4.8c0-3.2,0-3.6,0.1-4.8
			C2.4,6,2.7,5.3,2.8,4.9c0.2-0.6,0.5-1,1-1.4c0.4-0.4,0.9-0.7,1.5-0.9c0.5-0.2,1.1-0.4,2.4-0.4C9,2.2,9.4,2.2,12.8,2.2z M12.8,0
			C9.3,0,8.9,0,7.5,0.1C6.2,0.1,5.2,0.3,4.4,0.6C3.6,0.9,2.9,1.3,2.2,2C1.4,2.7,1,3.4,0.7,4.1C0.4,4.9,0.1,5.8,0.1,7.1
			C0,8.3,0,8.7,0,12c0,3.3,0,3.7,0.1,4.9c0.1,1.3,0.3,2.1,0.6,2.9C1,20.6,1.4,21.3,2.2,22c0.7,0.7,1.4,1.1,2.3,1.4
			c0.8,0.3,1.7,0.5,3.1,0.6C8.9,24,9.3,24,12.8,24c3.5,0,3.9,0,5.3-0.1c1.4-0.1,2.3-0.3,3.1-0.6c0.8-0.3,1.6-0.7,2.3-1.4
			c0.7-0.7,1.2-1.3,1.5-2.1c0.3-0.8,0.5-1.6,0.6-2.9c0.1-1.3,0.1-1.7,0.1-4.9c0-3.3,0-3.7-0.1-4.9c-0.1-1.3-0.3-2.1-0.6-2.9
			c-0.3-0.8-0.8-1.5-1.5-2.1c-0.7-0.7-1.4-1.1-2.3-1.4c-0.8-0.3-1.7-0.5-3.1-0.6C16.7,0,16.3,0,12.8,0z M12.8,5.8
			c-3.6,0-6.6,2.8-6.6,6.2c0,3.4,2.9,6.2,6.6,6.2c3.6,0,6.6-2.8,6.6-6.2C19.4,8.6,16.5,5.8,12.8,5.8z M12.8,16c-2.4,0-4.3-1.8-4.3-4
			s1.9-4,4.3-4c2.4,0,4.3,1.8,4.3,4S15.2,16,12.8,16z M21.2,5.6c0,0.8-0.7,1.4-1.5,1.4c-0.8,0-1.5-0.6-1.5-1.4
			c0-0.8,0.7-1.4,1.5-1.4C20.5,4.2,21.2,4.8,21.2,5.6z"/>
	</g>
</g>
<path class="st2" d="M54.2-1.8H29.4v23.2h13.3v-9h-3.2V9h3.2V6.4c0-3,2-4.6,4.8-4.6c1,0,1.9,0,2.9,0.1V5h-2c-1.6,0-1.9,0.7-1.9,1.7
	V9h3.7l-0.5,3.5h-3.3v9h7.7V-1.8z"/>
</svg>
