<?xml version="1.0" encoding="UTF-8"?><svg id="Layer_1" xmlns="http://www.w3.org/2000/svg" xmlns:xlink="http://www.w3.org/1999/xlink" viewBox="0 0 19.92 23.83"><defs><clipPath id="clippath"><rect x="-3.98" y="-2.27" width="28" height="28" style="fill:none;"/></clipPath></defs><g style="clip-path:url(#clippath);"><path d="m16.92,4.83v2.2s-1,0-1.8-.2c-1-.3-1.7-.7-1.7-.7l-.5-.3v5.9c0,.3-.1,1.2-.3,1.8-.3.9-.9,1.5-1,1.6,0,0-.6.8-1.8,1.3-1,.5-1.9.5-2.2.5,0,0-1.6.1-3-.9h0c-.1-.2-.3-.3-.4-.5-.4-.6-.7-1.2-.8-1.4h0c-.1-.3-.3-1.1-.3-1.9.1-1.4.5-2.2.6-2.4.3-.6.7-1.1,1.2-1.5.4-.4.9-.7,1.5-.9.6-.2,1.2-.4,1.8-.4v2.3s-1.2-.4-2.1.3c-.6.5-1,1-1.1,1.9,0,.6.2,1.5,1,2.2.1.1.2.1.3.2.2.2.3.4.5.5.8.6,1.5.6,2.5.2.6-.2,1.1-.8,1.3-1.4.1-.4.1-.8.1-1.1V.83h2.1c.1.5.3,1.2,1,2,.3.3.5.5.9.7.1.1.6.6,1.2.9.3.2.7.3,1,.4Z" style="fill:#efefef;"/><path d="m2.62,13.43l.1.2q-.1-.1-.1-.2Z" style="fill:none;"/><path d="m6.52,7.43c-.5.2-1,.5-1.5.9s-.9.9-1.2,1.5c-.1.2-.6,1.1-.6,2.4,0,.8.2,1.6.3,1.9h0c.1.2.3.9.8,1.4.1.2.3.3.4.5-.5-.3-.9-.7-1.3-1.2-.4-.6-.7-1.2-.8-1.4h0c-.1-.3-.3-1.1-.3-1.9.1-1.4.5-2.2.6-2.4.3-.6.7-1.1,1.2-1.5.4-.4.9-.7,1.5-.9.3-.1.7-.2,1-.3.5-.1,1.1-.1,1.6,0v.7c-.5-.1-1.2,0-1.7.3Z" style="fill:#292929;"/><path d="m12.92.83h-2.1v11.2c0,.4,0,.8-.1,1.1-.2.6-.7,1.1-1.3,1.4-.9.4-1.6.3-2.4-.2-.2-.1-.4-.3-.5-.5.7.4,1.4.4,2.2.1.6-.2,1.1-.8,1.3-1.4.1-.4.1-.8.1-1.1V.13h2.9c-.1,0-.1.3-.1.7Zm4,3.4v.6c-.3-.1-.7-.2-1-.4-.6-.3-1.1-.8-1.2-.9.1.1.2.1.3.2.8.4,1.6.5,1.9.5Z" style="fill:#292929;"/><path d="m13.02,22.03v.2h0c.1.4.5.6.8.6v.9c-.4,0-.7,0-1.2-.3s-.8-.9-.8-1.5.3-1.3.9-1.6c.4-.2.7-.2,1.2-.2v1c-.5,0-.9.4-.9.9h0Z" style="fill:#efefef;"/><path d="m14.82,22.03v.2h0c-.1.4-.5.6-.8.6v.9c.4,0,.7,0,1.2-.3s.8-.9.8-1.5-.3-1.3-.9-1.6c-.4-.2-.7-.2-1.2-.2v1c.5,0,.9.4.9.9h0Z" style="fill:#efefef;"/><path d="m.22,19.43h3.3l-.3.9h-.9v3.5h-1.1v-3.5H.22v-.9Zm8.7,0v.9h1.1v3.5h1.1v-3.5h.9l.3-.9h-3.4Zm-4.7,1c.3,0,.5-.2.5-.5s-.2-.5-.5-.5-.5.2-.5.5.2.5.5.5Zm-.5,3.3h1v-3h-1v3Zm4.7-3.3h-1.2l-1,1v-2h-1v4.4h1v-1.1l.3-.3,1,1.4h1.1l-1.5-2.1,1.3-1.3Zm10,1.2l1.3-1.3h-1.2l-1,1v-2h-1v4.4h1v-1.1l.3-.3,1,1.4h1.1l-1.5-2.1Zm-2.7.4c0,1-.8,1.8-1.8,1.8s-1.8-.8-1.8-1.8.8-1.8,1.8-1.8,1.8.8,1.8,1.8Zm-.9,0c0-.5-.4-.9-.9-.9s-.9.4-.9.9.4.9.9.9c.5-.1.9-.5.9-.9Z" style="fill:#efefef;"/></g></svg>