<svg width="26" height="24" viewBox="0 0 26 24" fill="none" xmlns="http://www.w3.org/2000/svg">
<g clip-path="url(#clip0_422_451)">
<path d="M13.0909 2.16221C16.5135 2.16221 16.9189 2.1744 18.2705 2.23213C19.5202 2.28553 20.199 2.48102 20.6507 2.64531C21.249 2.863 21.676 3.12308 22.1245 3.54297C22.5731 3.96287 22.8509 4.36266 23.0833 4.92274C23.2589 5.34564 23.4677 5.98103 23.5247 7.15097C23.5864 8.41637 23.5994 8.79587 23.5994 12C23.5994 15.2042 23.5864 15.5837 23.5247 16.849C23.4677 18.019 23.2589 18.6544 23.0833 19.0773C22.8509 19.6374 22.5731 20.0372 22.1245 20.4571C21.676 20.877 21.249 21.137 20.6507 21.3547C20.199 21.519 19.5202 21.7145 18.2705 21.7679C16.9191 21.8256 16.5137 21.8378 13.0909 21.8378C9.66804 21.8378 9.26266 21.8256 7.91124 21.7679C6.66148 21.7145 5.98277 21.519 5.53109 21.3547C4.93277 21.137 4.50572 20.877 4.0572 20.4571C3.60867 20.0372 3.33086 19.6374 3.09838 19.0773C2.92284 18.6544 2.71402 18.019 2.65698 16.8491C2.59531 15.5837 2.58228 15.2042 2.58228 12C2.58228 8.79587 2.59531 8.41637 2.65698 7.15102C2.71402 5.98103 2.92284 5.34564 3.09838 4.92274C3.33086 4.36266 3.60867 3.96287 4.0572 3.54297C4.50572 3.12308 4.93277 2.863 5.53109 2.64531C5.98277 2.48102 6.66148 2.28553 7.91119 2.23213C9.26287 2.1744 9.66824 2.16221 13.0909 2.16221ZM13.0909 0C9.60963 0 9.17316 0.0138139 7.80597 0.0722133C6.44157 0.130517 5.50982 0.333343 4.69444 0.630008C3.85153 0.936676 3.13669 1.347 2.42409 2.01411C1.71149 2.68123 1.27319 3.35044 0.945618 4.13954C0.628725 4.90288 0.41207 5.77516 0.349791 7.05246C0.28741 8.33234 0.272705 8.741 0.272705 12C0.272705 15.2591 0.28741 15.6677 0.349791 16.9476C0.41207 18.2249 0.628725 19.0972 0.945618 19.8605C1.27319 20.6496 1.71149 21.3188 2.42409 21.9859C3.13669 22.6531 3.85153 23.0634 4.69444 23.37C5.50982 23.6667 6.44157 23.8695 7.80597 23.9278C9.17316 23.9862 9.60963 24 13.0909 24C16.5721 24 17.0086 23.9862 18.3758 23.9278C19.7402 23.8695 20.6719 23.6667 21.4873 23.37C22.3302 23.0634 23.045 22.6531 23.7576 21.9859C24.4702 21.3188 24.9085 20.6496 25.2361 19.8605C25.553 19.0972 25.7697 18.2249 25.8319 16.9476C25.8943 15.6677 25.9091 15.2591 25.9091 12C25.9091 8.741 25.8943 8.33234 25.8319 7.05246C25.7697 5.77516 25.553 4.90288 25.2361 4.13954C24.9085 3.35044 24.4702 2.68123 23.7576 2.01411C23.045 1.347 22.3302 0.936676 21.4873 0.630008C20.6719 0.333343 19.7402 0.130517 18.3758 0.0722133C17.0086 0.0138139 16.5721 0 13.0909 0ZM13.0909 5.83784C9.45556 5.83784 6.50853 8.59676 6.50853 12C6.50853 15.4033 9.45556 18.1622 13.0909 18.1622C16.7262 18.1622 19.6732 15.4033 19.6732 12C19.6732 8.59676 16.7262 5.83784 13.0909 5.83784ZM13.0909 16C10.7311 16 8.81811 14.2091 8.81811 12C8.81811 9.7909 10.7311 8 13.0909 8C15.4506 8 17.3636 9.7909 17.3636 12C17.3636 14.2091 15.4506 16 13.0909 16ZM21.4714 5.59438C21.4714 6.38968 20.7828 7.03441 19.9332 7.03441C19.0837 7.03441 18.395 6.38968 18.395 5.59438C18.395 4.79909 19.0837 4.15441 19.9332 4.15441C20.7828 4.15441 21.4714 4.79909 21.4714 5.59438Z" fill="#EFEFEF"/>
</g>
<defs>
<clipPath id="clip0_422_451">
<rect width="25.6364" height="24" fill="white" transform="translate(0.272705)"/>
</clipPath>
</defs>
</svg>
