<?xml version="1.0" encoding="UTF-8"?><svg id="Layer_1" xmlns="http://www.w3.org/2000/svg" xmlns:xlink="http://www.w3.org/1999/xlink" viewBox="0 0 25.64 24"><defs><clipPath id="clippath"><rect width="25.64" height="24" style="fill:none;"/></clipPath></defs><g style="clip-path:url(#clippath);"><path d="m12.82,2.16c3.42,0,3.83.01,5.18.07,1.25.05,1.93.25,2.38.41.6.22,1.03.48,1.47.9.45.42.73.82.96,1.38.18.42.38,1.06.44,2.23.06,1.27.07,1.64.07,4.85s-.01,3.58-.07,4.85c-.06,1.17-.27,1.81-.44,2.23-.23.56-.51.96-.96,1.38-.45.42-.88.68-1.47.9-.45.16-1.13.36-2.38.41-1.35.06-1.76.07-5.18.07s-3.83-.01-5.18-.07c-1.25-.05-1.93-.25-2.38-.41-.6-.22-1.03-.48-1.47-.9-.45-.42-.73-.82-.96-1.38-.18-.42-.38-1.06-.44-2.23-.06-1.27-.07-1.64-.07-4.85s.01-3.58.07-4.85c.06-1.17.27-1.81.44-2.23.23-.56.51-.96.96-1.38.45-.42.88-.68,1.47-.9.45-.16,1.13-.36,2.38-.41,1.35-.06,1.76-.07,5.18-.07Zm0-2.16c-3.48,0-3.92.01-5.28.07-1.36.06-2.3.26-3.11.56-.84.31-1.56.72-2.27,1.38-.71.67-1.15,1.34-1.48,2.13-.32.76-.53,1.64-.6,2.91-.06,1.28-.08,1.69-.08,4.95s.01,3.67.08,4.95c.06,1.28.28,2.15.6,2.91.33.79.77,1.46,1.48,2.13.71.67,1.43,1.08,2.27,1.38.82.3,1.75.5,3.11.56,1.37.06,1.8.07,5.28.07s3.92-.01,5.28-.07c1.36-.06,2.3-.26,3.11-.56.84-.31,1.56-.72,2.27-1.38.71-.67,1.15-1.34,1.48-2.13.32-.76.53-1.64.6-2.91.06-1.28.08-1.69.08-4.95s-.01-3.67-.08-4.95c-.06-1.28-.28-2.15-.6-2.91-.33-.79-.77-1.46-1.48-2.13-.71-.67-1.43-1.08-2.27-1.38-.82-.3-1.75-.5-3.11-.56-1.37-.06-1.8-.07-5.28-.07Zm0,5.84c-3.64,0-6.58,2.76-6.58,6.16s2.95,6.16,6.58,6.16,6.58-2.76,6.58-6.16-2.95-6.16-6.58-6.16Zm0,10.16c-2.36,0-4.27-1.79-4.27-4s1.91-4,4.27-4,4.27,1.79,4.27,4-1.91,4-4.27,4Zm8.38-10.41c0,.8-.69,1.44-1.54,1.44s-1.54-.64-1.54-1.44.69-1.44,1.54-1.44,1.54.64,1.54,1.44Z" style="fill:#efefef;"/></g></svg>