<?xml version="1.0" encoding="UTF-8"?><svg id="Layer_1" xmlns="http://www.w3.org/2000/svg" xmlns:xlink="http://www.w3.org/1999/xlink" viewBox="0 0 25.14 23.54"><defs><clipPath id="clippath-1"><rect width="25.14" height="23.54" style="fill:none;"/></clipPath></defs><g style="clip-path:url(#clippath-1);"><path d="m20.01,10.43c-4.05-2.25-10.74-2.46-14.6-1.36-.62.18-1.28-.15-1.47-.73-.19-.58.16-1.2.78-1.37,4.44-1.26,11.82-1.02,16.49,1.57.56.31.74.99.41,1.51-.33.52-1.05.7-1.61.38Zm-.13,3.34c-.28.43-.89.57-1.35.3-3.38-1.94-8.53-2.51-12.53-1.37-.52.15-1.07-.13-1.22-.61-.16-.49.14-1,.65-1.14,4.57-1.3,10.24-.67,14.12,1.56.46.26.61.83.32,1.26Zm-1.54,3.2c-.23.35-.71.46-1.08.24-2.95-1.69-6.67-2.07-11.04-1.13-.42.09-.84-.16-.94-.55-.1-.4.17-.79.59-.88,4.79-1.02,8.9-.58,12.21,1.31.37.21.49.66.26,1.01ZM12.57,0C5.63,0,0,5.27,0,11.77s5.63,11.77,12.57,11.77,12.57-5.27,12.57-11.77S19.51,0,12.57,0Z" style="fill:#efefef; fill-rule:evenodd;"/></g></svg>