<?xml version="1.0" encoding="utf-8"?>
<!-- Generator: Adobe Illustrator 27.5.0, SVG Export Plug-In . SVG Version: 6.00 Build 0)  -->
<svg version="1.1" id="Layer_1" xmlns="http://www.w3.org/2000/svg" xmlns:xlink="http://www.w3.org/1999/xlink" x="0px" y="0px"
	 viewBox="0 0 19.9 23.8" style="enable-background:new 0 0 19.9 23.8;" xml:space="preserve">
<style type="text/css">
	.st0{clip-path:url(#SVGID_00000052072924377639692060000010644876069619218612_);}
	.st1{display:none;fill:none;}
	.st2{fill:#EFEFEF;}
	.st3{fill:none;}
	.st4{fill:#292929;}
	.st5{clip-path:url(#SVGID_00000045591597533541527150000008812206708644117659_);}
	.st6{fill-rule:evenodd;clip-rule:evenodd;fill:#EFEFEF;}
	.st7{clip-path:url(#SVGID_00000039853320619137151620000009418479156095250623_);}
</style>
<g>
	<g>
		<defs>
			<rect id="SVGID_1_" x="-4" y="-2.3" width="28" height="28"/>
		</defs>
		<clipPath id="SVGID_00000055670568793763153660000001028596478638337689_">
			<use xlink:href="#SVGID_1_"  style="overflow:visible;"/>
		</clipPath>
		<g style="clip-path:url(#SVGID_00000055670568793763153660000001028596478638337689_);">
			<path class="st1" d="M2.9,15.1L3,15.3C2.9,15.2,2.9,15.2,2.9,15.1z M5.1,11.4c0.1-0.9,0.5-1.3,1.1-1.8c0.9-0.7,2.1-0.3,2.1-0.3V7
				c0.3,0,0.6,0,0.8,0.1V10c0,0-1.2-0.4-2.1,0.3c-0.6,0.5-1,1-1.1,1.9c0,0.5,0.1,1.1,0.5,1.6c-0.1-0.1-0.2-0.1-0.3-0.2
				C5.3,13,5.1,12.1,5.1,11.4z M13.9,2.8c-0.6-0.7-0.9-1.5-1-2h0.8c0,0-0.2,1.4,1,2.7l0,0C14.4,3.3,14.2,3.1,13.9,2.8z M17.7,4.9
				v2.9c0,0-1,0-1.8-0.2c-1-0.4-1.7-0.8-1.7-0.8l-0.5-0.3v5.9c0,0.3-0.1,1.2-0.3,1.8c-0.3,0.9-0.9,1.5-1,1.6c0,0-0.6,0.8-1.8,1.3
				c-1,0.5-1.9,0.5-2.2,0.5c0,0-1.6,0.1-3-0.9c-0.3-0.2-0.6-0.4-0.8-0.7l0,0c1.4,1,3,0.9,3,0.9c0.3,0,1.2,0,2.2-0.5
				c1.1-0.5,1.8-1.3,1.8-1.3c0.1-0.1,0.6-0.7,1-1.6c0.3-0.7,0.3-1.5,0.3-1.8v-6L13.4,6c0,0,0.7,0.4,1.7,0.7c0.8,0.2,1.8,0.2,1.8,0.2
				V4.8C17.3,4.9,17.6,4.9,17.7,4.9z"/>
			<path class="st2" d="M16.9,4.8V7c0,0-1,0-1.8-0.2c-1-0.3-1.7-0.7-1.7-0.7l-0.5-0.3v5.9c0,0.3-0.1,1.2-0.3,1.8
				c-0.3,0.9-0.9,1.5-1,1.6c0,0-0.6,0.8-1.8,1.3c-1,0.5-1.9,0.5-2.2,0.5c0,0-1.6,0.1-3-0.9l0,0c-0.1-0.2-0.3-0.3-0.4-0.5
				c-0.4-0.6-0.7-1.2-0.8-1.4l0,0c-0.1-0.3-0.3-1.1-0.3-1.9c0.1-1.4,0.5-2.2,0.6-2.4C4,9.2,4.4,8.7,4.9,8.3c0.4-0.4,0.9-0.7,1.5-0.9
				C7,7.2,7.6,7,8.2,7v2.3c0,0-1.2-0.4-2.1,0.3c-0.6,0.5-1,1-1.1,1.9c0,0.6,0.2,1.5,1,2.2c0.1,0.1,0.2,0.1,0.3,0.2
				c0.2,0.2,0.3,0.4,0.5,0.5C7.6,15,8.3,15,9.3,14.6c0.6-0.2,1.1-0.8,1.3-1.4c0.1-0.4,0.1-0.8,0.1-1.1V0.8h2.1c0.1,0.5,0.3,1.2,1,2
				c0.3,0.3,0.5,0.5,0.9,0.7c0.1,0.1,0.6,0.6,1.2,0.9C16.2,4.6,16.6,4.7,16.9,4.8z"/>
			<path class="st3" d="M2.6,13.4l0.1,0.2C2.6,13.5,2.6,13.5,2.6,13.4z"/>
			<path class="st4" d="M6.5,7.4C6,7.6,5.5,7.9,5,8.3C4.5,8.7,4.1,9.2,3.8,9.8c-0.1,0.2-0.6,1.1-0.6,2.4c0,0.8,0.2,1.6,0.3,1.9l0,0
				c0.1,0.2,0.3,0.9,0.8,1.4c0.1,0.2,0.3,0.3,0.4,0.5c-0.5-0.3-0.9-0.7-1.3-1.2c-0.4-0.6-0.7-1.2-0.8-1.4l0,0
				c-0.1-0.3-0.3-1.1-0.3-1.9c0.1-1.4,0.5-2.2,0.6-2.4C3.2,8.5,3.6,8,4.1,7.6C4.5,7.2,5,6.9,5.6,6.7c0.3-0.1,0.7-0.2,1-0.3
				c0.5-0.1,1.1-0.1,1.6,0v0.7C7.7,7,7,7.1,6.5,7.4z"/>
			<path class="st4" d="M12.9,0.8h-2.1V12c0,0.4,0,0.8-0.1,1.1c-0.2,0.6-0.7,1.1-1.3,1.4c-0.9,0.4-1.6,0.3-2.4-0.2
				c-0.2-0.1-0.4-0.3-0.5-0.5c0.7,0.4,1.4,0.4,2.2,0.1c0.6-0.2,1.1-0.8,1.3-1.4c0.1-0.4,0.1-0.8,0.1-1.1V0.1H13
				C12.9,0.1,12.9,0.4,12.9,0.8z M16.9,4.2v0.6c-0.3-0.1-0.7-0.2-1-0.4c-0.6-0.3-1.1-0.8-1.2-0.9c0.1,0.1,0.2,0.1,0.3,0.2
				C15.8,4.1,16.6,4.2,16.9,4.2z"/>
			<path class="st2" d="M13,22c0,0.1,0,0.2,0,0.2l0,0c0.1,0.4,0.5,0.6,0.8,0.6v0.9c-0.4,0-0.7,0-1.2-0.3s-0.8-0.9-0.8-1.5
				s0.3-1.3,0.9-1.6c0.4-0.2,0.7-0.2,1.2-0.2v1C13.4,21.1,13,21.5,13,22L13,22z"/>
			<path class="st2" d="M14.8,22c0,0.1,0,0.2,0,0.2l0,0c-0.1,0.4-0.5,0.6-0.8,0.6v0.9c0.4,0,0.7,0,1.2-0.3s0.8-0.9,0.8-1.5
				s-0.3-1.3-0.9-1.6c-0.4-0.2-0.7-0.2-1.2-0.2v1C14.4,21.1,14.8,21.5,14.8,22L14.8,22L14.8,22z"/>
			<path class="st2" d="M0.2,19.4h3.3l-0.3,0.9H2.3v3.5H1.2v-3.5h-1V19.4z M8.9,19.4v0.9H10v3.5h1.1v-3.5H12l0.3-0.9H8.9z M4.2,20.4
				c0.3,0,0.5-0.2,0.5-0.5s-0.2-0.5-0.5-0.5s-0.5,0.2-0.5,0.5C3.7,20.2,3.9,20.4,4.2,20.4z M3.7,23.7h1v-3h-1V23.7z M8.4,20.4H7.2
				l-1,1v-2h-1v4.4h1v-1.1l0.3-0.3l1,1.4h1.1l-1.5-2.1L8.4,20.4z M18.4,21.6l1.3-1.3h-1.2l-1,1v-2h-1v4.4h1v-1.1l0.3-0.3l1,1.4h1.1
				L18.4,21.6z M15.7,22c0,1-0.8,1.8-1.8,1.8S12.1,23,12.1,22s0.8-1.8,1.8-1.8S15.7,21,15.7,22z M14.8,22c0-0.5-0.4-0.9-0.9-0.9
				S13,21.5,13,22s0.4,0.9,0.9,0.9C14.4,22.8,14.8,22.4,14.8,22z"/>
		</g>
	</g>
</g>
<g>
	<g>
		<defs>
			<rect id="SVGID_00000021102834467431455550000011316295287606370701_" x="-68.7" y="-14.5" width="25.1" height="23.5"/>
		</defs>
		<clipPath id="SVGID_00000044859804574710992840000015000148230254919066_">
			<use xlink:href="#SVGID_00000021102834467431455550000011316295287606370701_"  style="overflow:visible;"/>
		</clipPath>
		<g style="clip-path:url(#SVGID_00000044859804574710992840000015000148230254919066_);">
			<path class="st6" d="M-48.7-4c-4.1-2.3-10.7-2.5-14.6-1.4c-0.6,0.2-1.3-0.2-1.5-0.7C-65-6.7-64.6-7.3-64-7.5
				c4.4-1.3,11.8-1,16.5,1.6c0.6,0.3,0.7,1,0.4,1.5C-47.4-3.9-48.1-3.7-48.7-4z M-48.8-0.7c-0.3,0.4-0.9,0.6-1.3,0.3
				c-3.4-1.9-8.5-2.5-12.5-1.4c-0.5,0.1-1.1-0.1-1.2-0.6c-0.2-0.5,0.1-1,0.7-1.1c4.6-1.3,10.2-0.7,14.1,1.6
				C-48.7-1.7-48.5-1.1-48.8-0.7z M-50.3,2.5C-50.5,2.8-51,3-51.4,2.7c-3-1.7-6.7-2.1-11-1.1c-0.4,0.1-0.8-0.2-0.9-0.6
				c-0.1-0.4,0.2-0.8,0.6-0.9c4.8-1,8.9-0.6,12.2,1.3C-50.2,1.7-50.1,2.2-50.3,2.5z M-56.1-14.5c-6.9,0-12.6,5.3-12.6,11.8
				s5.6,11.8,12.6,11.8c6.9,0,12.6-5.3,12.6-11.8S-49.2-14.5-56.1-14.5z"/>
		</g>
	</g>
</g>
<g>
	<g>
		<defs>
			<rect id="SVGID_00000131325641849693933390000010203779534664267940_" x="-41.1" y="9.4" width="25.6" height="24"/>
		</defs>
		<clipPath id="SVGID_00000169554703841391563050000017708082576386959791_">
			<use xlink:href="#SVGID_00000131325641849693933390000010203779534664267940_"  style="overflow:visible;"/>
		</clipPath>
		<g style="clip-path:url(#SVGID_00000169554703841391563050000017708082576386959791_);">
			<path class="st2" d="M-28.3,11.6c3.4,0,3.8,0,5.2,0.1c1.2,0.1,1.9,0.2,2.4,0.4c0.6,0.2,1,0.5,1.5,0.9c0.4,0.4,0.7,0.8,1,1.4
				c0.1,0.3,0.3,1,0.4,2.2c0.1,1.3,0.1,1.6,0.1,4.8s0,3.6-0.1,4.8c-0.1,1.2-0.3,1.8-0.4,2.2c-0.2,0.6-0.5,1-1,1.4
				c-0.4,0.4-0.9,0.7-1.5,0.9c-0.5,0.2-1.1,0.4-2.4,0.4c-1.4,0.1-1.8,0.1-5.2,0.1s-3.8,0-5.2-0.1c-1.2-0.1-1.9-0.2-2.4-0.4
				c-0.6-0.2-1-0.5-1.5-0.9c-0.4-0.4-0.7-0.8-1-1.4c-0.2-0.4-0.4-1.1-0.4-2.2c-0.1-1.3-0.1-1.6-0.1-4.8s0-3.6,0.1-4.8
				s0.4-1.9,0.5-2.3c0.2-0.6,0.5-1,1-1.4c0.4-0.4,0.9-0.7,1.5-0.9c0.5-0.2,1.1-0.4,2.4-0.4C-32.1,11.6-31.7,11.6-28.3,11.6z
				 M-28.3,9.4c-3.5,0-3.9,0-5.3,0.1c-1.3,0-2.3,0.2-3.1,0.5s-1.5,0.7-2.2,1.4c-0.8,0.7-1.2,1.4-1.5,2.1c-0.3,0.8-0.6,1.7-0.6,3
				c-0.1,1.2-0.1,1.6-0.1,4.9s0,3.7,0.1,4.9c0.1,1.3,0.3,2.1,0.6,2.9c0.3,0.8,0.7,1.5,1.5,2.2c0.7,0.7,1.4,1.1,2.3,1.4
				c0.8,0.3,1.7,0.5,3.1,0.6c1.3,0,1.7,0,5.2,0s3.9,0,5.3-0.1c1.4-0.1,2.3-0.3,3.1-0.6c0.8-0.3,1.6-0.7,2.3-1.4
				c0.7-0.7,1.2-1.3,1.5-2.1c0.3-0.8,0.5-1.6,0.6-2.9c0.1-1.3,0.1-1.7,0.1-4.9c0-3.3,0-3.7-0.1-4.9c-0.1-1.3-0.3-2.1-0.6-2.9
				c-0.3-0.8-0.8-1.5-1.5-2.1c-0.7-0.7-1.4-1.1-2.3-1.4c-0.8-0.3-1.7-0.5-3.1-0.6C-24.4,9.4-24.8,9.4-28.3,9.4z M-28.3,15.2
				c-3.6,0-6.6,2.8-6.6,6.2s2.9,6.2,6.6,6.2c3.6,0,6.6-2.8,6.6-6.2S-24.6,15.2-28.3,15.2z M-28.3,25.4c-2.4,0-4.3-1.8-4.3-4
				s1.9-4,4.3-4s4.3,1.8,4.3,4S-25.9,25.4-28.3,25.4z M-19.9,15c0,0.8-0.7,1.4-1.5,1.4s-1.5-0.6-1.5-1.4s0.7-1.4,1.5-1.4
				S-19.9,14.2-19.9,15z"/>
		</g>
	</g>
</g>
<path class="st2" d="M22.4-24.5H-2.4v23.2h13.3v-9H7.7v-3.4h3.2v-2.6c0-3,2-4.6,4.8-4.6c1,0,1.9,0,2.9,0.1v3.1h-2
	c-1.6,0-1.9,0.7-1.9,1.7v2.3h3.7l-0.5,3.5h-3.3v9h7.7L22.4-24.5L22.4-24.5z"/>
</svg>
