<svg width="26" height="24" viewBox="0 0 26 24" fill="none" xmlns="http://www.w3.org/2000/svg">
<g clip-path="url(#clip0_422_445)">
<path fill-rule="evenodd" clip-rule="evenodd" d="M20.4683 10.638C16.3365 8.341 9.52152 8.13 5.57673 9.251C4.9433 9.431 4.27355 9.096 4.08234 8.503C3.89007 7.91 4.24684 7.283 4.88134 7.103C9.40937 5.816 16.9358 6.065 21.6924 8.708C22.2617 9.025 22.4487 9.713 22.1111 10.246C21.7736 10.779 21.0376 10.955 20.4683 10.638ZM20.3337 14.041C20.0431 14.481 19.4289 14.619 18.9589 14.349C15.514 12.367 10.2618 11.792 6.18559 12.95C5.65791 13.1 5.09925 12.821 4.93902 12.327C4.77987 11.832 5.07789 11.311 5.60557 11.16C10.2607 9.838 16.0481 10.478 20.0047 12.755C20.4747 13.025 20.6221 13.602 20.3337 14.041ZM18.7645 17.308C18.5348 17.662 18.0424 17.773 17.6664 17.557C14.6563 15.835 10.8674 15.446 6.40564 16.4C5.97623 16.492 5.54789 16.24 5.44962 15.838C5.35134 15.435 5.61946 15.034 6.04993 14.942C10.9326 13.897 15.1209 14.347 18.4996 16.28C18.8767 16.495 18.9952 16.956 18.7645 17.308ZM12.8863 0C5.80746 0 0.0681152 5.373 0.0681152 12C0.0681152 18.628 5.80746 24 12.8863 24C19.9662 24 25.7045 18.628 25.7045 12C25.7045 5.373 19.9662 0 12.8863 0Z" fill="#EFEFEF"/>
</g>
<defs>
<clipPath id="clip0_422_445">
<rect width="25.6364" height="24" fill="white" transform="translate(0.0681152)"/>
</clipPath>
</defs>
</svg>
